# xmcd
#
# Track frame offsets: 
#        150
#        17081
#        40463
#        62381
#        89838
#        122447
#        147914
#        173116
#        188635
#        218786
#        242425
#        257893
#        275227
#        302835
#        331037
#
# Disc length: 4672 seconds
#
# Revision: 2
# Processed by: cddbd v1.5.2PL0 Copyright (c) Steve Scherf et al.
# Submitted via: ExactAudioCopy v1.0b3
#
DISCID=d6123e0f
DTITLE=Various Artist - Time Blues  vol5
DYEAR=2008
DGENRE=Blues
TTITLE0=Jools Holland's Big Band and Ruby Turner - Nobody But You
TTITLE1=Tom Principato - Santana Claus
TTITLE2=Johnnie Johnson - Tanquery
TTITLE3=Robert Ealey - Please Mr.Johnson
TTITLE4="Sir" Oliver Mally's Blues Distillery - Bad Dream
TTITLE5=Medford Slim Band - Treat Her Right
TTITLE6=Troy Turner - House Without A Home
TTITLE7=Mike Henderson and The BlueBloods - Whiskey Story
TTITLE8=Lazy Doker Blues Band - Closed Doors
TTITLE9=Rab McCullough - Shame On You
TTITLE10=Roy Roberts - Couldn't See The Tears For The Rain
TTITLE11=Snowy White - The Time Has Come
TTITLE12=Toth Bagi Band - Old Love
TTITLE13=Jackie Payne - Day In The Life
TTITLE14=Leon Russell - Dark Caroused
EXTD=
EXTT0=
EXTT1=
EXTT2=
EXTT3=
EXTT4=
EXTT5=
EXTT6=
EXTT7=
EXTT8=
EXTT9=
EXTT10=
EXTT11=
EXTT12=
EXTT13=
EXTT14=
PLAYORDER=
